<svg aria-hidden="true" style="position: absolute; width: 0; height: 0; overflow: hidden;" version="1.1" xmlns="http://www.w3.org/2000/svg" xmlns:xlink="http://www.w3.org/1999/xlink">
<defs>
<symbol id="icon-people" viewBox="0 0 24 24">
<path d="M12 3c-4.971 0-9 4.029-9 9 0 0.817 0.109 1.608 0.313 2.36 0.411-0.305 0.868-0.573 1.366-0.789-0.427-0.58-0.679-1.296-0.679-2.072 0-1.933 1.567-3.5 3.5-3.5s3.5 1.567 3.5 3.5c0 0.775-0.252 1.492-0.679 2.072 0.455 0.197 0.876 0.437 1.26 0.711 0.012 0.009 0.025 0.018 0.037 0.028 0.403-0.432 0.876-0.828 1.411-1.165-0.931-0.732-1.528-1.869-1.528-3.145 0-2.209 1.791-4 4-4s4 1.791 4 4c0 0.81-0.24 1.563-0.654 2.193 0.773 0.175 1.475 0.46 2.097 0.824 0.037-0.334 0.057-0.673 0.057-1.016 0-4.971-4.029-9-9-9zM10.491 15.957c-0.024-0.014-0.048-0.030-0.072-0.047-0.761-0.543-1.74-0.911-2.919-0.911-1.438 0-2.589 0.549-3.405 1.306 1.527 2.796 4.494 4.694 7.905 4.694 3.885 0 7.196-2.462 8.456-5.911-0.017-0.011-0.034-0.023-0.051-0.035-0.836-0.619-1.95-1.054-3.314-1.054-3.307 0-5.091 2.529-5.091 4 0 0.552-0.448 1-1 1s-1-0.448-1-1c0-0.662 0.17-1.362 0.491-2.043zM1 12c0-6.075 4.925-11 11-11s11 4.925 11 11c0 6.075-4.925 11-11 11s-11-4.925-11-11zM15.5 8c-1.105 0-2 0.895-2 2s0.895 2 2 2 2-0.895 2-2c0-1.105-0.895-2-2-2zM6 11.5c0-0.828 0.672-1.5 1.5-1.5s1.5 0.672 1.5 1.5c0 0.828-0.672 1.5-1.5 1.5s-1.5-0.672-1.5-1.5z"></path>
</symbol>
<symbol id="icon-smile" viewBox="0 0 24 24">
<path d="M12 1.029c-6.050 0-10.971 4.922-10.971 10.971s4.922 10.971 10.971 10.971 10.971-4.922 10.971-10.971-4.922-10.971-10.971-10.971zM12 21.6c-5.302 0-9.6-4.298-9.6-9.6s4.298-9.6 9.6-9.6 9.6 4.298 9.6 9.6-4.298 9.6-9.6 9.6z"></path>
<path d="M16.417 15.837c-0.158-0.104-0.371-0.061-0.475 0.097-0.883 1.339-2.367 2.138-3.969 2.138-1.692 0-3.269-0.911-4.117-2.377-0.095-0.164-0.305-0.22-0.468-0.125-0.164 0.095-0.22 0.305-0.125 0.468 0.97 1.678 2.775 2.72 4.711 2.72 1.833 0 3.531-0.915 4.541-2.447 0.104-0.158 0.061-0.37-0.097-0.475z"></path>
<path d="M9.406 12.189c0.067 0.087 0.168 0.132 0.271 0.132 0.074 0 0.148-0.024 0.211-0.073 0.149-0.116 0.176-0.332 0.059-0.481l-1.659-2.127c-0.063-0.081-0.16-0.13-0.264-0.132-0.107-0.002-0.202 0.043-0.268 0.121l-1.617 1.915c-0.122 0.145-0.104 0.361 0.040 0.483 0.146 0.123 0.361 0.103 0.483-0.040l1.344-1.592 1.4 1.795z"></path>
<path d="M16.074 9.629c-0.067-0.079-0.171-0.122-0.268-0.121-0.103 0.002-0.2 0.050-0.264 0.132l-1.659 2.127c-0.117 0.149-0.090 0.365 0.059 0.481 0.063 0.049 0.137 0.073 0.211 0.073 0.102 0 0.203-0.045 0.271-0.132l1.4-1.794 1.344 1.592c0.121 0.144 0.337 0.164 0.483 0.040 0.145-0.122 0.163-0.338 0.040-0.483l-1.616-1.915z"></path>
<path d="M6.399 5.867c-0.134-0.134-0.351-0.134-0.485 0-0.137 0.137-0.269 0.278-0.395 0.421-0.125 0.142-0.111 0.359 0.031 0.484 0.065 0.057 0.146 0.085 0.226 0.085 0.095 0 0.19-0.039 0.257-0.117 0.117-0.133 0.238-0.263 0.365-0.389 0.134-0.134 0.134-0.351 0-0.485z"></path>
<path d="M4.623 8.17c-0.171-0.083-0.376-0.010-0.457 0.161-0.844 1.757-1.092 3.781-0.698 5.699 0.033 0.162 0.176 0.274 0.336 0.274 0.023 0 0.046-0.002 0.069-0.007 0.185-0.038 0.305-0.219 0.267-0.405-0.363-1.771-0.134-3.641 0.645-5.264 0.082-0.17 0.010-0.375-0.161-0.457z"></path>
<path d="M12.539 19.057h-1.371c-0.19 0-0.343 0.153-0.343 0.343s0.153 0.343 0.343 0.343h1.371c0.19 0 0.343-0.153 0.343-0.343s-0.153-0.343-0.343-0.343z"></path>
</symbol>
<symbol id="icon-puzzle" viewBox="0 0 24 24">
<path d="M14.284 6c-0.201-0.006-0.361-0.17-0.361-0.372 0-0.013 0.001-0.027 0.002-0.040l-0 0.002c0-0.164 0.137-0.334 0.36-0.597 0.415-0.407 0.683-0.963 0.715-1.582l0-0.006c-0.002-1.328-1.077-2.403-2.405-2.405h-0.19c-1.328 0.002-2.403 1.077-2.405 2.405v0c0.032 0.625 0.3 1.181 0.716 1.588l0 0c0.222 0.263 0.359 0.433 0.359 0.598 0.001 0.011 0.002 0.024 0.002 0.037 0 0.202-0.161 0.366-0.361 0.372h-6.716v6.716c0.006 0.752 0.617 1.359 1.37 1.359 0.014 0 0.027-0 0.041-0.001l-0.002 0c0.494-0.041 0.93-0.26 1.249-0.592l0.001-0.001c0.31-0.258 0.518-0.481 0.896-0.481 0.766 0.003 1.385 0.624 1.385 1.39 0 0.005-0 0.011-0 0.016v-0.001 0.19c0 0.004 0 0.010 0 0.015 0 0.766-0.62 1.387-1.385 1.39h-0c-0.378 0-0.586-0.223-0.896-0.481-0.32-0.333-0.756-0.552-1.243-0.593l-0.007-0c-0.012-0-0.025-0.001-0.039-0.001-0.753 0-1.363 0.607-1.37 1.358v5.717h16v-16zM19 21h-14v-4.716c0.007-0.2 0.171-0.36 0.372-0.36 0.013 0 0.026 0.001 0.039 0.002l-0.002-0c0.168 0 0.341 0.137 0.61 0.361 0.387 0.415 0.928 0.683 1.531 0.713l0.005 0c1.318-0.003 2.385-1.072 2.385-2.39 0-0.005-0-0.011-0-0.016v0.001-0.19c0-0.004 0-0.010 0-0.015 0-1.318-1.067-2.387-2.385-2.39h-0c-0.608 0.030-1.149 0.298-1.535 0.712l-0.001 0.001c-0.269 0.224-0.442 0.361-0.61 0.361-0.011 0.001-0.024 0.002-0.037 0.002-0.201 0-0.365-0.16-0.372-0.359l-0-0.001v-5.716h5.716c0.752-0.006 1.36-0.617 1.36-1.37 0-0.014-0-0.028-0.001-0.042l0 0.002c-0.040-0.492-0.261-0.926-0.595-1.241l-0.001-0.001c-0.263-0.237-0.439-0.567-0.478-0.937l-0.001-0.006c0.001-0.776 0.63-1.404 1.405-1.405h0.19c0.775 0.001 1.404 0.63 1.405 1.405v0c-0.040 0.376-0.216 0.706-0.478 0.942l-0.001 0.001c-0.336 0.316-0.557 0.75-0.596 1.236l-0 0.007c-0 0.012-0.001 0.025-0.001 0.039 0 0.753 0.608 1.365 1.36 1.37h4.716z"></path>
</symbol>
<symbol id="icon-hands" viewBox="0 0 24 24">
<path d="M23.073 10.926c-0.321-0.623-0.943-0.981-1.706-0.981-1.218 0-2.361 1.109-3.37 2.087-0.467 0.453-0.945 0.916-1.338 1.167l1.668-8.448c0.159-0.683 0.039-1.321-0.339-1.797-0.357-0.45-0.923-0.719-1.513-0.719-0.752 0-1.713 0.47-1.943 1.771l-0.771 3.207v-3.946c0-1.653-1.104-2.518-2.194-2.518s-2.194 0.865-2.194 2.518v4.074l-1.046-3.839c-0.264-1.14-1.145-1.546-1.881-1.546-0.65 0-1.264 0.294-1.645 0.788-0.367 0.476-0.475 1.093-0.308 1.721l0.728 3.323-0.917-1.799c-0.384-0.755-1.016-1.188-1.732-1.188-0.625 0-1.22 0.337-1.552 0.88-0.352 0.574-0.359 1.288-0.010 1.972 1.053 1.856 2.723 5.056 2.723 5.745 0 0.198-0.020 0.48-0.043 0.806-0.1 1.4-0.268 3.744 0.657 5.818 0.848 1.9 3.394 3.227 6.192 3.228 3.259 0 5.979-1.761 7.464-4.833 0.66-1.365 2.136-3.154 3.591-4.351 0.651-0.535 2.175-1.791 1.483-3.139zM4.281 13.395c0-1.087-2.351-5.294-2.813-6.109-0.711-1.398 1.258-2.394 2-0.938l2.719 5.281 0.231-0.921-1.395-6.41c-0.394-1.49 2.051-2.35 2.445-0.652l2.032 7.5 0.393-0.859v-7.008c0-2.34 3.014-2.348 3.014-0.008v8.031l0.637-0.711 1.5-6.469c0.348-1.96 2.709-1.153 2.348 0.399l-1.703 8.986c-2.523-0.089-6.045 1.61-5.645 5.385 0.321-3.491 3.524-4.656 5.7-4.656 0.828 0 1.106-0.094 2.747-1.852 2.781-2.979 3.866-1.51 3.833-0.879-0.113 2.16-3.808 2.886-5.477 6.531-2.192 4.786-8.57 4.98-11.235 2.68-1.975-1.704-1.329-7.095-1.329-7.32z"></path>
</symbol>
<symbol id="icon-medical" viewBox="0 0 24 24">
<path d="M18.435 6.465h-1.43v-0.9c0-1.381-1.119-2.5-2.5-2.5v0h-5c-1.381 0-2.5 1.119-2.5 2.5v0 0.9h-1.44c-1.381 0-2.5 1.119-2.5 2.5v0 9.47c0 1.381 1.119 2.5 2.5 2.5v0h12.87c1.381 0 2.5-1.119 2.5-2.5v0-9.47c0-1.381-1.119-2.5-2.5-2.5v0zM8.005 5.565c0-0.828 0.672-1.5 1.5-1.5v0h5c0.828 0 1.5 0.672 1.5 1.5v0 0.9h-8zM19.935 18.435c0 0.828-0.672 1.5-1.5 1.5v0h-12.87c-0.828 0-1.5-0.672-1.5-1.5v0-9.47c0-0.828 0.672-1.5 1.5-1.5v0h12.87c0.828 0 1.5 0.672 1.5 1.5v0z"></path>
<path d="M14.505 13.675c0 0.276-0.224 0.5-0.5 0.5v0h-1.5v1.5c0 0.276-0.224 0.5-0.5 0.5v0c-0.276 0-0.5-0.224-0.5-0.5v0-1.5h-1.5c-0.276 0-0.5-0.224-0.5-0.5v0c0-0.276 0.224-0.5 0.5-0.5v0h1.5v-1.5c0-0.276 0.224-0.5 0.5-0.5v0c0.274 0.004 0.496 0.226 0.5 0.5v1.5h1.5c0.274 0.004 0.496 0.226 0.5 0.5v0z"></path>
</symbol>
<symbol id="icon-soldier" viewBox="0 0 24 24">
<path d="M13.493 3.74c-0.255 0-0.488-0.136-0.614-0.356-0.363 0.158-0.771 0.242-1.193 0.242-0.425 0-0.835-0.085-1.2-0.245-0.122 0.217-0.348 0.352-0.597 0.359 0.080 0.935 0.863 1.668 1.819 1.668s1.738-0.733 1.818-1.668h-0.034z"></path>
<path d="M14.101 11.952l-1.726 0.608c-0.049 0.204-0.135 0.403-0.26 0.587-0.474 0.696-1.373 0.97-2.159 0.645-0.071 0.048-0.575 0.391-0.646 0.439-0.027 0.147-0.018-0.465-0.018 8.65 0 0.618 0.501 1.119 1.119 1.119s1.119-0.501 1.119-1.119v-8.449h0.332v8.449c0 0.618 0.501 1.119 1.119 1.119s1.119-0.501 1.119-1.119c-0-9.2-0-10.929-0-10.929z"></path>
<path d="M18.347 10.488l-1.11-0.46-1.331 0.464c0.029 0.192 0 0.388-0.086 0.567-0.057 0.118-0.136 0.221-0.231 0.305l2.044 0.847c0.476 0.197 1.022-0.029 1.219-0.504s-0.029-1.022-0.504-1.219z"></path>
<path d="M8.112 12.583l-2.821 0.977c-0.282 0.098-0.431 0.406-0.332 0.688l0.405 1.163c0.117 0.337 0.522 0.468 0.814 0.269l3.244-2.205-1.31-0.893z"></path>
<path d="M19.048 8.369c-0.074-0.213-0.307-0.325-0.52-0.251l-0.579 0.202-0.118-0.337c-0.074-0.213-0.307-0.325-0.52-0.251s-0.326 0.307-0.251 0.52l0.118 0.337-5.677 1.978 0.143 0.097c0.451 0.307 0.716 0.784 0.77 1.287l2.666-0.929c0.213-0.074 0.325-0.307 0.251-0.52-0.058-0.166-0.212-0.271-0.379-0.274l3.844-1.34c0.213-0.074 0.326-0.307 0.251-0.52z"></path>
<path d="M16.201 8.063c-0.006-1.172-0.964-2.126-2.136-2.126-0.512 0-3.946 0-4.46 0-0.798 0-1.539 0.431-1.933 1.125-0.825 1.451-0.468 0.823-1.291 2.271-0.24 0.422-0.116 0.958 0.286 1.232l3.446 2.347c0.426 0.29 1.006 0.18 1.296-0.246s0.18-1.006-0.246-1.296l-2.735-1.863c0.935-1.645 0.872-1.548 0.925-1.601v1.197l1.57 1.069 3.096-1.079v-1.069c0-0.089 0.072-0.161 0.16-0.161s0.16 0.072 0.16 0.161c0 0.015-0.001 0.030-0.004 0.047l0.005 0.91 1.862-0.649-0.001-0.27z"></path>
<path d="M13.934 3.006c-0.077-0.414-0.266-1.436-0.266-1.474 0-0.846-0.887-1.532-1.982-1.532-1.044 0-1.899 0.625-1.976 1.417h-0.006l-0.277 1.591c-0.016 0.089 0.053 0.17 0.143 0.17h0.299c0.054 0 0.103-0.030 0.128-0.077l0.265-0.503c0.36 0.287 0.864 0.465 1.422 0.465 0.553 0 1.054-0.176 1.413-0.458l0.265 0.496c0.025 0.047 0.075 0.077 0.128 0.077h0.298c0.091 0 0.159-0.082 0.143-0.172z"></path>
</symbol>
<symbol id="icon-tree" viewBox="0 0 24 24">
<path d="M17.712 7.835c0.186-0.579 0.288-1.195 0.288-1.835 0-3.314-2.686-6-6-6s-6 2.686-6 6c0 0.64 0.102 1.256 0.288 1.835-2.349 0.813-4.038 3.039-4.038 5.665 0 3.313 2.686 6 6 6 0.797 0 1.555-0.161 2.25-0.444v4.569c0 0.207 0.168 0.375 0.375 0.375h2.25c0.207 0 0.375-0.168 0.375-0.375v-4.569c0.695 0.283 1.453 0.444 2.25 0.444 3.314 0 6-2.687 6-6 0-2.626-1.689-4.852-4.038-5.665zM12.75 23.25h-1.5v-4.559c0.262-0.153 0.514-0.322 0.75-0.511 0.236 0.189 0.487 0.358 0.75 0.511v4.559zM15.75 18.75c-1.092 0-2.105-0.336-2.945-0.907l2.469-2.468h1.601c0.207 0 0.375-0.168 0.375-0.375s-0.168-0.375-0.375-0.375h-1.5v-1.5c0-0.207-0.168-0.375-0.375-0.375s-0.375 0.168-0.375 0.375v1.837l-2.25 2.25v-4.682l1.394-1.394c0.147-0.147 0.147-0.384 0-0.531s-0.389-0.141-0.536 0.006l-1.234 1.234-1.25-1.249c-0.147-0.147-0.35-0.113-0.496 0.034s-0.163 0.368-0.017 0.514l1.387 1.388v4.681l-2.25-2.249v-1.838c0-0.207-0.168-0.375-0.375-0.375s-0.375 0.168-0.375 0.375v1.5h-1.5c-0.207 0-0.375 0.168-0.375 0.375s0.168 0.375 0.375 0.375h1.601l2.469 2.468c-0.84 0.571-1.853 0.907-2.945 0.907-2.899 0-5.25-2.351-5.25-5.25 0-2.577 1.857-4.715 4.305-5.161-0.352-0.705-0.555-1.498-0.555-2.339 0-2.899 2.35-5.25 5.25-5.25s5.25 2.351 5.25 5.25c0 0.841-0.203 1.634-0.555 2.339 2.448 0.446 4.305 2.584 4.305 5.161 0 2.899-2.351 5.25-5.25 5.25z"></path>
</symbol>
<symbol id="icon-food" viewBox="0 0 24 24">
<path d="M22.526 4.476c-0.402 0-0.946-0.114-1.494-0.314-0.841-0.306-1.491-0.733-1.656-1.088-0.066-0.142-0.050-0.254-0.025-0.322 0.075-0.208 0.311-0.313 0.699-0.313 0.402 0 0.946 0.114 1.495 0.314 0.487 0.177 0.926 0.402 1.237 0.634 0.379 0.282 0.529 0.544 0.444 0.776-0.075 0.208-0.311 0.313-0.7 0.313zM20.050 2.814c-0.245 0-0.335 0.051-0.349 0.069-0.007 0.103 0.428 0.552 1.459 0.927 0.508 0.185 1.006 0.291 1.366 0.291 0.245 0 0.336-0.051 0.349-0.069 0.007-0.102-0.428-0.552-1.458-0.926-0.509-0.185-1.007-0.291-1.366-0.291zM21.358 6.743c-0.009-0-0.017-0.001-0.025-0.002l0.001 0c-0.346-0.045-0.739-0.144-1.135-0.289-0.395-0.143-0.76-0.319-1.053-0.507-0.087-0.056-0.112-0.172-0.056-0.259s0.171-0.113 0.259-0.057c0.27 0.173 0.608 0.336 0.978 0.47 0.372 0.135 0.737 0.228 1.055 0.269 0.093 0.012 0.164 0.091 0.164 0.186 0 0.008-0.001 0.017-0.002 0.025l0-0.001c-0.012 0.093-0.091 0.163-0.186 0.164v0z"></path>
<path d="M17.139 9.563c-0.021 0-0.043-0.004-0.064-0.011-0.073-0.027-0.123-0.096-0.123-0.176 0-0.023 0.004-0.045 0.012-0.065l-0 0.001 2.387-6.559c0.027-0.073 0.096-0.123 0.176-0.123 0.023 0 0.045 0.004 0.065 0.012l-0.001-0c0.073 0.027 0.123 0.096 0.123 0.176 0 0.023-0.004 0.045-0.012 0.065l0-0.001-2.387 6.559c-0.027 0.073-0.096 0.123-0.176 0.123v0zM21.129 9.563c-0.021 0-0.043-0.004-0.064-0.011-0.073-0.027-0.123-0.096-0.123-0.176 0-0.023 0.004-0.045 0.012-0.065l-0 0.001 1.92-5.277c0.035-0.097 0.143-0.147 0.24-0.112 0.073 0.027 0.123 0.096 0.123 0.176 0 0.023-0.004 0.045-0.012 0.065l0-0.001-1.92 5.277c-0.027 0.073-0.096 0.123-0.176 0.123-0 0-0 0-0 0v0zM17.96 9.509c-0 0-0 0-0 0-0.103 0-0.187-0.084-0.187-0.187 0-0.023 0.004-0.045 0.012-0.066l-0 0.001 1.286-3.534c0.027-0.072 0.096-0.123 0.176-0.123 0.023 0 0.045 0.004 0.065 0.012l-0.001-0c0.073 0.027 0.123 0.096 0.123 0.176 0 0.023-0.004 0.045-0.012 0.065l0-0.001-1.286 3.534c-0.027 0.073-0.096 0.123-0.176 0.123-0 0-0 0-0 0v0zM20.331 9.563c-0.021 0-0.043-0.004-0.064-0.011-0.073-0.027-0.123-0.096-0.123-0.176 0-0.023 0.004-0.045 0.012-0.065l-0 0.001 1.027-2.821c0.035-0.097 0.143-0.147 0.24-0.112 0.073 0.027 0.123 0.096 0.123 0.176 0 0.023-0.004 0.045-0.012 0.065l0-0.001-1.027 2.821c-0.027 0.073-0.096 0.123-0.176 0.123v0zM22.31 11.438h-22.12c-0.104 0-0.188-0.084-0.188-0.187v-1.125c0-0 0-0 0-0 0-0.103 0.084-0.187 0.187-0.187 0 0 0 0 0 0h9.748c0.104 0 0.188 0.084 0.188 0.187 0 0 0 0 0 0 0 0.103-0.084 0.187-0.187 0.187-0 0-0 0-0 0h-9.561v0.75h21.745v-0.75h-9.561c-0 0-0 0-0 0-0.103 0-0.187-0.084-0.187-0.187 0-0 0-0 0-0v0c0-0 0-0 0-0 0-0.103 0.084-0.187 0.187-0.187 0 0 0 0 0 0h9.748c0.104 0 0.188 0.084 0.188 0.187v1.125c0 0 0 0 0 0 0 0.103-0.084 0.187-0.187 0.187-0 0-0 0-0 0v0z"></path>
<path d="M19.311 22.31h-16.122c-0 0-0 0-0 0-0.090 0-0.165-0.064-0.183-0.148l-0-0.001-2.25-10.873c-0.002-0.011-0.004-0.024-0.004-0.038 0-0.090 0.064-0.165 0.148-0.184l0.001-0c0.1-0.022 0.2 0.044 0.222 0.146l2.219 10.723h15.816l2.218-10.723c0.021-0.102 0.12-0.167 0.222-0.146 0.086 0.019 0.149 0.094 0.149 0.184 0 0.013-0.001 0.026-0.004 0.039l0-0.001-2.25 10.873c-0.018 0.086-0.094 0.149-0.184 0.149-0 0-0 0-0 0v0z"></path>
<path d="M19.311 22.31c-0 0-0 0-0 0-0.065 0-0.122-0.033-0.155-0.083l-0-0.001c-0.020-0.029-0.032-0.065-0.032-0.104 0-0.065 0.033-0.122 0.083-0.155l0.001-0 1.061-0.707 2.13-10.229c0.021-0.101 0.118-0.168 0.222-0.145 0.086 0.018 0.149 0.093 0.149 0.183 0 0.014-0.001 0.027-0.004 0.040l0-0.001-2.146 10.304c-0.010 0.049-0.039 0.091-0.079 0.117l-0.001 0-1.125 0.75c-0.029 0.020-0.065 0.031-0.104 0.032h-0zM11.25 20.061c-0.414 0-0.75-0.336-0.75-0.75v-5.249c0-0.413 0.336-0.75 0.75-0.75s0.75 0.336 0.75 0.75v5.249c0 0.414-0.336 0.75-0.75 0.75zM11.25 13.687c-0.207 0-0.375 0.168-0.375 0.375v5.249c0 0.207 0.168 0.375 0.375 0.375s0.375-0.168 0.375-0.375v-5.249c-0-0.206-0.168-0.375-0.375-0.375zM7.126 20.061c-0.414 0-0.75-0.336-0.75-0.75l-0.374-5.235c-0.001-0.427 0.336-0.763 0.749-0.763s0.75 0.336 0.75 0.75l0.374 5.236c0.001 0.427-0.336 0.763-0.749 0.763zM6.751 13.687c-0.207 0-0.375 0.168-0.375 0.375l0.374 5.236c0.001 0.22 0.169 0.388 0.375 0.388s0.375-0.168 0.375-0.375l-0.374-5.235c-0.001-0.22-0.169-0.388-0.375-0.388zM15.374 20.061c-0.414 0-0.75-0.336-0.75-0.75l0.376-5.262c-0.001-0.4 0.335-0.737 0.749-0.737s0.75 0.336 0.75 0.75l-0.376 5.263c0.001 0.4-0.335 0.736-0.749 0.736zM15.749 13.687c-0.206 0-0.375 0.168-0.375 0.375l-0.376 5.263c0.001 0.193 0.169 0.361 0.376 0.361s0.375-0.168 0.375-0.375l0.376-5.262c-0.001-0.193-0.169-0.362-0.376-0.362zM0.19 10.313c-0 0-0 0-0.001 0-0.103 0-0.187-0.084-0.187-0.187 0-0.065 0.033-0.122 0.083-0.156l0.001-0 1.125-0.75c0.029-0.020 0.065-0.032 0.104-0.032 0.065 0 0.122 0.033 0.155 0.083l0 0.001c0.020 0.029 0.032 0.065 0.032 0.104 0 0.065-0.033 0.122-0.083 0.156l-0.001 0-1.125 0.75c-0.029 0.020-0.065 0.031-0.104 0.031h-0zM22.31 10.313c-0 0-0 0-0 0-0.065 0-0.122-0.033-0.155-0.083l-0-0.001c-0.020-0.029-0.032-0.065-0.032-0.104 0-0.065 0.033-0.122 0.083-0.155l0.001-0 1.125-0.75c0.029-0.020 0.065-0.032 0.104-0.032 0.065 0 0.122 0.033 0.156 0.083l0 0.001c0.020 0.029 0.032 0.065 0.032 0.104 0 0.065-0.033 0.122-0.083 0.156l-0.001 0-1.125 0.75c-0.029 0.020-0.065 0.031-0.104 0.031h-0z"></path>
<path d="M22.31 11.438c-0 0-0 0-0 0-0.065 0-0.122-0.033-0.155-0.083l-0-0.001c-0.020-0.029-0.032-0.065-0.032-0.104 0-0.065 0.033-0.122 0.083-0.155l0.001-0 1.125-0.75c0.029-0.019 0.063-0.030 0.101-0.030 0.104 0 0.188 0.084 0.188 0.188 0 0.064-0.032 0.12-0.080 0.154l-0.001 0-1.125 0.75c-0.029 0.020-0.065 0.031-0.104 0.031v0zM23.435 9.563h-0.375c-0 0-0 0-0 0-0.103 0-0.187-0.084-0.187-0.187 0-0 0-0 0-0v0c0-0 0-0 0-0 0-0.103 0.084-0.187 0.187-0.187 0 0 0 0 0 0h0.375c0 0 0 0 0 0 0.103 0 0.187 0.084 0.187 0.187 0 0 0 0 0 0v0c0 0 0 0 0 0 0 0.103-0.084 0.187-0.187 0.187-0 0-0 0-0 0v0zM1.69 9.563h-0.375c-0 0-0 0-0 0-0.103 0-0.187-0.084-0.187-0.187 0-0 0-0 0-0v0c0-0 0-0 0-0 0-0.103 0.084-0.187 0.187-0.187 0 0 0 0 0 0h0.375c0 0 0 0 0 0 0.103 0 0.187 0.084 0.187 0.187 0 0 0 0 0 0v0c0 0 0 0 0 0 0 0.103-0.084 0.187-0.187 0.187-0 0-0 0-0 0v0z"></path>
<path d="M23.435 10.688c-0 0-0 0-0 0-0.103 0-0.187-0.084-0.187-0.187 0-0 0-0 0-0v0-1.125c0-0 0-0 0-0 0-0.103 0.084-0.187 0.187-0.187 0 0 0 0 0 0v0c0 0 0 0 0 0 0.103 0 0.187 0.084 0.187 0.187 0 0 0 0 0 0v0 1.125c0 0 0 0 0 0 0 0.103-0.084 0.187-0.187 0.187-0 0-0 0-0 0v0zM11.813 10.875c-0 0-0 0-0 0-0.103 0-0.187-0.084-0.187-0.187 0-0 0-0 0-0v0-7.873h-0.75v7.873c0 0.104-0.084 0.187-0.187 0.187s-0.187-0.084-0.187-0.187v-8.061c0-0 0-0 0-0 0-0.103 0.084-0.187 0.187-0.187 0 0 0 0 0 0h1.125c0 0 0 0 0 0 0.103 0 0.187 0.084 0.187 0.187 0 0 0 0 0 0v0 8.061c0 0 0 0 0 0 0 0.103-0.084 0.187-0.187 0.187-0 0-0 0-0 0v0zM12.937 8.813c-0 0-0 0-0 0-0.103 0-0.187-0.084-0.187-0.187 0-0 0-0 0-0v0-6.749c0-0.104 0.084-0.188 0.187-0.188 0 0 0 0 0 0 0.103 0 0.187 0.084 0.187 0.187 0 0 0 0 0 0v0 6.749c0 0 0 0 0 0 0 0.103-0.084 0.187-0.187 0.187-0 0-0 0-0 0v0z"></path>
<path d="M11.813 2.814c-0 0-0 0-0 0-0.065 0-0.122-0.033-0.155-0.083l-0-0.001c-0.020-0.029-0.032-0.065-0.032-0.104 0-0.065 0.033-0.122 0.083-0.156l0.001-0 1.125-0.75c0.086-0.058 0.202-0.034 0.26 0.052s0.034 0.202-0.052 0.26l-1.125 0.75c-0.029 0.020-0.065 0.031-0.104 0.031v0zM10.688 2.814c-0 0-0 0-0 0-0.065 0-0.122-0.033-0.155-0.083l-0-0.001c-0.020-0.029-0.032-0.065-0.032-0.104 0-0.065 0.033-0.122 0.083-0.156l0.001-0 1.125-0.75c0.029-0.020 0.065-0.032 0.104-0.032 0.065 0 0.122 0.033 0.155 0.083l0 0.001c0.020 0.029 0.032 0.065 0.032 0.104 0 0.065-0.033 0.122-0.083 0.156l-0.001 0-1.125 0.75c-0.029 0.020-0.065 0.031-0.104 0.031v0zM13.312 9.563h-0.75c-0 0-0 0-0 0-0.103 0-0.187-0.084-0.187-0.187 0-0 0-0 0-0v0c0-0 0-0 0-0 0-0.103 0.084-0.187 0.187-0.187 0 0 0 0 0 0h0.75c0 0 0 0 0 0 0.103 0 0.187 0.084 0.187 0.187 0 0 0 0 0 0v0c0 0 0 0 0 0 0 0.103-0.084 0.187-0.187 0.187-0 0-0 0-0 0v0zM22.31 9.563c-0.039-0-0.075-0.012-0.105-0.032l0.001 0c-0.051-0.034-0.084-0.091-0.084-0.156 0-0.039 0.012-0.075 0.032-0.105l-0 0.001 1.5-2.25c0.057-0.086 0.173-0.109 0.26-0.052 0.051 0.034 0.084 0.091 0.084 0.156 0 0.039-0.012 0.075-0.032 0.105l0-0.001-1.5 2.25c-0.034 0.051-0.091 0.083-0.156 0.083-0 0-0 0-0 0h0z"></path>
<path d="M23.81 7.314h-1.125c-0 0-0 0-0 0-0.103 0-0.187-0.084-0.187-0.187 0-0 0-0 0-0v0c0-0 0-0 0-0 0-0.103 0.084-0.187 0.187-0.187 0 0 0 0 0 0h1.125c0 0 0 0 0 0 0.103 0 0.187 0.084 0.187 0.187 0 0 0 0 0 0v0c0 0 0 0 0 0 0 0.103-0.084 0.187-0.187 0.187-0 0-0 0-0 0v0zM7.688 9.563c-0.104 0-0.188-0.084-0.188-0.187v-2.062h-3.374v2.062c0 0 0 0 0 0 0 0.103-0.084 0.187-0.187 0.187-0 0-0 0-0 0v0c-0.104 0-0.188-0.084-0.188-0.187v-2.25c0-0 0-0 0-0 0-0.103 0.084-0.187 0.187-0.187 0 0 0 0 0 0h3.749c0 0 0 0 0 0 0.103 0 0.187 0.084 0.187 0.187 0 0 0 0 0 0v0 2.25c0 0 0 0 0 0 0 0.104-0.084 0.187-0.187 0.187-0 0-0 0-0 0v0zM9.938 9.563h-1.5c-0 0-0 0-0 0-0.103 0-0.187-0.084-0.187-0.187 0-0 0-0 0-0v0c0-0 0-0 0-0 0-0.103 0.084-0.187 0.187-0.187 0 0 0 0 0 0h1.5c0.104 0 0.187 0.084 0.187 0.187s-0.084 0.187-0.187 0.187v0z"></path>
<path d="M7.689 7.314c-0 0-0 0-0 0-0.065 0-0.122-0.033-0.155-0.083l-0-0.001-0.75-1.125c-0.020-0.029-0.032-0.065-0.032-0.104 0-0.065 0.033-0.122 0.083-0.155l0.001-0c0.029-0.020 0.065-0.032 0.104-0.032 0.065 0 0.122 0.033 0.155 0.083l0 0.001 0.75 1.125c0.020 0.029 0.032 0.065 0.032 0.104 0 0.103-0.084 0.187-0.187 0.187-0 0-0 0-0 0v0z"></path>
<path d="M6.939 6.189h-3.749c-0 0-0 0-0 0-0.103 0-0.187-0.084-0.187-0.187 0-0 0-0 0-0v0c0-0 0-0 0-0 0-0.103 0.084-0.187 0.187-0.187 0 0 0 0 0 0h3.749c0 0 0 0 0 0 0.103 0 0.187 0.084 0.187 0.187 0 0 0 0 0 0v0c0 0 0 0 0 0 0 0.103-0.084 0.187-0.187 0.187-0 0-0 0-0 0v0z"></path>
<path d="M3.939 7.314c-0 0-0 0-0 0-0.065 0-0.122-0.033-0.155-0.083l-0-0.001-0.75-1.125c-0.020-0.029-0.032-0.065-0.032-0.104 0-0.065 0.033-0.122 0.083-0.155l0.001-0c0.029-0.020 0.065-0.032 0.104-0.032 0.065 0 0.122 0.033 0.155 0.083l0 0.001 0.75 1.125c0.020 0.029 0.032 0.065 0.032 0.104 0 0.103-0.084 0.187-0.187 0.187-0 0-0 0-0 0v0z"></path>
<path d="M2.439 7.314c-0 0-0 0-0 0-0.103 0-0.187-0.084-0.187-0.187 0-0.039 0.012-0.075 0.032-0.105l-0 0.001 0.75-1.125c0.034-0.051 0.091-0.084 0.156-0.084 0.039 0 0.075 0.012 0.105 0.032l-0.001-0c0.051 0.034 0.084 0.091 0.084 0.156 0 0.039-0.012 0.075-0.032 0.105l0-0.001-0.75 1.125c-0.034 0.051-0.091 0.083-0.156 0.083-0 0-0 0-0 0h0z"></path>
<path d="M2.439 9.563c-0.104 0-0.188-0.084-0.188-0.187v-2.25c0-0.104 0.084-0.187 0.188-0.187s0.187 0.084 0.187 0.187v2.25c0 0 0 0 0 0 0 0.103-0.084 0.187-0.187 0.187-0 0-0 0-0 0v0zM3.189 9.563c-0 0-0 0-0 0-0.103 0-0.187-0.084-0.187-0.187 0-0 0-0 0-0v0-1.875c0-0.104 0.084-0.187 0.187-0.187s0.187 0.084 0.187 0.187v1.875c0 0 0 0 0 0 0 0.103-0.084 0.187-0.187 0.187-0 0-0 0-0 0v0zM6.939 6.189h-3.749c-0 0-0 0-0 0-0.103 0-0.187-0.084-0.187-0.187 0-0 0-0 0-0v0-0.75c0-0 0-0 0-0 0-0.103 0.084-0.187 0.187-0.187 0 0 0 0 0 0h3.749c0 0 0 0 0 0 0.103 0 0.187 0.084 0.187 0.187 0 0 0 0 0 0v0 0.75c0 0 0 0 0 0 0 0.103-0.084 0.187-0.187 0.187-0 0-0 0-0 0v0zM3.377 5.814h3.374v-0.375h-3.374v0.375zM12.937 2.065h-1.125c-0 0-0 0-0 0-0.103 0-0.187-0.084-0.187-0.187 0-0 0-0 0-0v0c0-0.104 0.084-0.188 0.187-0.188h1.125c0 0 0 0 0 0 0.103 0 0.187 0.084 0.187 0.187 0 0 0 0 0 0v0c0 0 0 0 0 0 0 0.103-0.084 0.187-0.187 0.187-0 0-0 0-0 0v0zM16.312 9.563c-0.104 0-0.188-0.084-0.188-0.187 0-0.517-0.42-0.937-0.937-0.937s-0.937 0.421-0.937 0.937c0 0 0 0 0 0 0 0.103-0.084 0.187-0.187 0.187-0 0-0 0-0 0v0c-0 0-0 0-0 0-0.103 0-0.187-0.084-0.187-0.187 0-0 0-0 0-0v0c0-0.724 0.589-1.312 1.312-1.312s1.312 0.589 1.312 1.312c0 0 0 0 0 0 0 0.103-0.084 0.187-0.187 0.187-0 0-0 0-0 0v0zM15.562 7.688h-0.75c-0 0-0 0-0 0-0.103 0-0.187-0.084-0.187-0.187 0-0 0-0 0-0v0c0-0 0-0 0-0 0-0.103 0.084-0.187 0.187-0.187 0 0 0 0 0 0h0.75c0 0 0 0 0 0 0.103 0 0.187 0.084 0.187 0.187 0 0 0 0 0 0v0c0 0 0 0 0 0 0 0.103-0.084 0.187-0.187 0.187-0 0-0 0-0 0v0z"></path>
<path d="M14.812 8.063c-0 0-0 0-0 0-0.103 0-0.187-0.084-0.187-0.187 0-0 0-0 0-0v0-0.375c0-0 0-0 0-0 0-0.103 0.084-0.187 0.187-0.187 0 0 0 0 0 0v0c0.104 0 0.188 0.084 0.188 0.187v0.375c0 0.104-0.084 0.188-0.188 0.188z"></path>
<path d="M15.562 8.063c-0 0-0 0-0 0-0.103 0-0.187-0.084-0.187-0.187 0-0 0-0 0-0v0-0.375c0-0.104 0.084-0.187 0.187-0.187s0.187 0.084 0.187 0.187v0.375c0 0.104-0.084 0.188-0.187 0.188z"></path>
<path d="M16.312 7.314c-0.012 0-0.024-0.001-0.037-0.004l-1.875-0.375c-0.087-0.018-0.151-0.093-0.151-0.184 0-0.013 0.001-0.026 0.004-0.038l-0 0.001c0.021-0.102 0.119-0.169 0.22-0.147l1.875 0.375c0.087 0.018 0.151 0.093 0.151 0.184 0 0.013-0.001 0.026-0.004 0.038l0-0.001c-0.018 0.087-0.093 0.151-0.184 0.151-0 0-0 0-0 0h0z"></path>
<path d="M14.437 7.688c-0 0-0 0-0 0-0.103 0-0.187-0.084-0.187-0.187 0-0 0-0 0-0v0-0.75c0-0.104 0.084-0.188 0.187-0.188s0.187 0.084 0.187 0.188v0.75c0 0 0 0 0 0 0 0.103-0.084 0.187-0.187 0.187-0 0-0 0-0 0v0z"></path>
<path d="M16.312 7.688h-1.875c-0 0-0 0-0 0-0.103 0-0.187-0.084-0.187-0.187 0-0 0-0 0-0v0c0-0 0-0 0-0 0-0.103 0.084-0.187 0.187-0.187 0 0 0 0 0 0h1.875c0 0 0 0 0 0 0.103 0 0.187 0.084 0.187 0.187 0 0 0 0 0 0v0c0 0 0 0 0 0 0 0.103-0.084 0.187-0.187 0.187-0 0-0 0-0 0v0z"></path>
<path d="M16.312 7.688c-0.104 0-0.188-0.084-0.188-0.187v-0.375c0-0 0-0 0-0 0-0.103 0.084-0.187 0.187-0.187 0 0 0 0 0 0v0c0 0 0 0 0 0 0.103 0 0.187 0.084 0.187 0.187 0 0 0 0 0 0v0 0.375c0 0 0 0 0 0 0 0.103-0.084 0.187-0.187 0.187-0 0-0 0-0 0v0z"></path>
<path d="M6.652 9.563c-0 0-0 0-0 0-0.055 0-0.105-0.024-0.139-0.062l-0-0c-0.355-0.396-1.040-0.397-1.397-0-0.034 0.038-0.084 0.062-0.139 0.062-0.048 0-0.092-0.018-0.125-0.048l0 0c-0.038-0.034-0.062-0.084-0.062-0.14 0-0.048 0.018-0.092 0.048-0.125l-0 0c0.241-0.268 0.59-0.436 0.977-0.436h0c0.388 0 0.736 0.168 0.977 0.436l0.001 0.001c0.030 0.033 0.048 0.077 0.048 0.125 0 0.104-0.084 0.187-0.187 0.188h-0z"></path>
<path d="M11.813 10.875h-1.125c-0 0-0 0-0 0-0.103 0-0.187-0.084-0.187-0.187 0-0 0-0 0-0v0c0-0 0-0 0-0 0-0.103 0.084-0.187 0.187-0.187 0 0 0 0 0 0h1.125c0 0 0 0 0 0 0.103 0 0.187 0.084 0.187 0.187 0 0 0 0 0 0v0c0 0 0 0 0 0 0 0.103-0.084 0.187-0.187 0.187-0 0-0 0-0 0v0z"></path>
</symbol>
<!-- facebook -->
<symbol id="icon-facebook" viewBox="0 0 32 32">
<path d="M19 6h5v-6h-5c-3.86 0-7 3.14-7 7v3h-4v6h4v16h6v-16h5l1-6h-6v-3c0-0.542 0.458-1 1-1z"></path>
</symbol>
<!-- footer -->
<symbol id="icon-phone" viewBox="0 0 24 24">
<path d="M1.277 8.858c1.329 5.28 8.586 12.542 13.865 13.865 0.654 0.173 1.405 0.273 2.179 0.274h0.001c1.466-0.001 2.846-0.371 4.051-1.022l-0.045 0.022c1-0.531 1.67-1.565 1.67-2.757 0-0.856-0.346-1.632-0.906-2.194l-2.086-2.086c-0.563-0.563-1.341-0.911-2.199-0.911-0.45 0-0.878 0.096-1.264 0.268l0.020-0.008c-0.57 0.25-1.057 0.582-1.472 0.988l0.001-0.001c-0.178 0.177-0.506 0.205-0.977 0.077-2.503-1.036-4.452-2.985-5.464-5.421l-0.024-0.066c-0.126-0.471-0.1-0.8 0.078-0.977 0.406-0.415 0.738-0.903 0.976-1.442l0.012-0.031c0.164-0.366 0.259-0.793 0.259-1.243 0-0.859-0.348-1.636-0.91-2.199l-2.086-2.085c-0.556-0.563-1.327-0.911-2.18-0.911-0.168 0-0.332 0.013-0.492 0.039l0.018-0.002c-1.006 0.152-1.842 0.768-2.292 1.62l-0.008 0.017c-0.63 1.165-1.001 2.55-1.001 4.021 0 0.769 0.101 1.515 0.291 2.225l-0.014-0.060zM3.773 3.6c0.165-0.312 0.466-0.533 0.821-0.586l0.006-0.001c0.049-0.008 0.106-0.013 0.164-0.013 0.001 0 0.002 0 0.003 0h-0c0 0 0 0 0 0 0.303 0 0.576 0.124 0.774 0.323l2.085 2.085c0.202 0.2 0.327 0.476 0.327 0.782 0 0.156-0.032 0.304-0.091 0.438l0.003-0.007c-0.145 0.34-0.338 0.631-0.576 0.88l0.001-0.001c-0.473 0.503-0.763 1.181-0.763 1.928 0 0.349 0.063 0.683 0.179 0.992l-0.006-0.019c0.722 2.7 4.205 6.179 6.9 6.9 0.288 0.109 0.621 0.171 0.969 0.171 0.751 0 1.434-0.294 1.94-0.773l-0.001 0.001c0.247-0.236 0.536-0.43 0.855-0.569l0.019-0.007c0.127-0.056 0.275-0.088 0.431-0.088 0.306 0 0.583 0.125 0.783 0.327l2.085 2.085c0.2 0.197 0.323 0.471 0.323 0.774 0 0.059-0.005 0.117-0.014 0.174l0.001-0.006c-0.055 0.362-0.278 0.662-0.585 0.823l-0.006 0.003c-0.892 0.489-1.955 0.777-3.085 0.777-0.598 0-1.177-0.080-1.727-0.231l0.046 0.011c-4.544-1.131-11.273-7.86-12.417-12.402-0.14-0.504-0.22-1.083-0.22-1.681 0-1.131 0.288-2.196 0.794-3.123l-0.017 0.034z"></path>
</symbol>
<symbol id="icon-mail" viewBox="0 0 24 24">
<path d="M22.5 3.75h-21c-0.828 0-1.5 0.672-1.5 1.5v0 13.5c0 0.828 0.672 1.5 1.5 1.5v0h21c0.828 0 1.5-0.672 1.5-1.5v0-13.5c0-0.828-0.672-1.5-1.5-1.5v0zM20.55 5.625l-7.92 7.215c-0.165 0.152-0.387 0.246-0.63 0.246s-0.465-0.093-0.631-0.246l-7.919-7.214zM1.875 18.375v-11.655l8.235 7.5c0.495 0.457 1.16 0.738 1.89 0.738s1.395-0.28 1.892-0.739l8.233-7.498v11.655z"></path>
</symbol>
<symbol id="icon-map" viewBox="0 0 24 24">
<path d="M10.706 23.306c0.637 0.712 1.706 0.712 2.344-0.019 0.056-0.056 0.169-0.188 0.338-0.375 0.281-0.3 0.581-0.656 0.9-1.050 0.938-1.106 1.875-2.306 2.756-3.525s1.65-2.419 2.269-3.544c1.163-2.081 1.8-3.881 1.8-5.363 0.019-5.212-4.125-9.431-9.244-9.431s-9.244 4.219-9.244 9.431c0 1.481 0.637 3.3 1.8 5.381 0.638 1.125 1.406 2.325 2.269 3.544 0.881 1.219 1.819 2.419 2.756 3.525 0.337 0.394 0.637 0.75 0.9 1.050 0.188 0.188 0.3 0.319 0.356 0.375zM11.531 22.538c-0.056-0.056-0.169-0.188-0.337-0.375-0.263-0.3-0.563-0.656-0.881-1.031-0.919-1.087-1.837-2.269-2.7-3.45-0.863-1.2-1.613-2.344-2.213-3.431-1.069-1.931-1.65-3.581-1.65-4.819 0-4.575 3.637-8.288 8.119-8.288s8.137 3.713 8.137 8.288c0 1.238-0.581 2.888-1.65 4.8-0.6 1.088-1.35 2.25-2.213 3.431-0.862 1.2-1.781 2.362-2.7 3.45-0.319 0.375-0.619 0.731-0.881 1.031-0.169 0.188-0.281 0.3-0.337 0.375-0.206 0.225-0.488 0.244-0.694 0.019z"></path>
<path d="M11.869 13.556c-2.531 0-4.594-2.063-4.594-4.594s2.062-4.594 4.594-4.594 4.594 2.063 4.594 4.594-2.063 4.594-4.594 4.594zM11.869 5.494c-1.912 0-3.469 1.556-3.469 3.469s1.556 3.469 3.469 3.469 3.469-1.556 3.469-3.469-1.556-3.469-3.469-3.469z"></path>
</symbol>
<!-- mission title icon -->
<symbol id="icon-task" viewBox="0 0 24 24">
<path d="M19.999 19.261h-9.070c-0.45 0-0.82-0.37-0.82-0.82s0.37-0.82 0.82-0.82h9.070c0.45 0 0.82 0.37 0.82 0.82 0 0.46-0.37 0.82-0.82 0.82z"></path>
<path d="M19.999 12.968h-9.070c-0.45 0-0.82-0.37-0.82-0.82s0.37-0.82 0.82-0.82h9.070c0.45 0 0.82 0.37 0.82 0.82s-0.37 0.82-0.82 0.82z"></path>
<path d="M19.999 6.671h-9.070c-0.45 0-0.82-0.37-0.82-0.82s0.37-0.82 0.82-0.82h9.070c0.45 0 0.82 0.37 0.82 0.82s-0.37 0.82-0.82 0.82z"></path>
<path d="M4.91 8.032c-0.22 0-0.43-0.090-0.58-0.24l-0.91-0.91c-0.32-0.32-0.32-0.84 0-1.16s0.84-0.32 1.16 0l0.33 0.33 2.14-2.14c0.32-0.32 0.84-0.32 1.16 0s0.32 0.84 0 1.16l-2.72 2.72c-0.16 0.15-0.36 0.24-0.58 0.24z"></path>
<path d="M4.91 14.329c-0.21 0-0.42-0.080-0.58-0.24l-0.91-0.91c-0.32-0.32-0.32-0.84 0-1.16s0.84-0.32 1.16 0l0.33 0.33 2.14-2.14c0.32-0.32 0.84-0.32 1.16 0s0.32 0.84 0 1.16l-2.72 2.72c-0.16 0.16-0.37 0.24-0.58 0.24z"></path>
<path d="M4.91 20.329c-0.21 0-0.42-0.080-0.58-0.24l-0.91-0.91c-0.32-0.32-0.32-0.84 0-1.16s0.84-0.32 1.16 0l0.33 0.33 2.14-2.14c0.32-0.32 0.84-0.32 1.16 0s0.32 0.84 0 1.16l-2.72 2.72c-0.16 0.16-0.37 0.24-0.58 0.24z"></path>
</symbol>
<!-- report title icon -->
<symbol id="icon-report" viewBox="0 0 24 24">
<path d="M10 4.5c0 0.276-0.224 0.5-0.5 0.5s-0.5-0.224-0.5-0.5c0-0.828 0.672-1.5 1.5-1.5h3c0.828 0 1.5 0.672 1.5 1.5 0 0.276-0.224 0.5-0.5 0.5s-0.5-0.224-0.5-0.5c0-0.276-0.224-0.5-0.5-0.5h-3c-0.276 0-0.5 0.224-0.5 0.5zM6.5 4c0.276 0 0.5 0.224 0.5 0.5s-0.224 0.5-0.5 0.5c-0.828 0-1.5 0.672-1.5 1.5v12c0 0.828 0.672 1.5 1.5 1.5h11c0.828 0 1.5-0.672 1.5-1.5v-12c0-0.828-0.672-1.5-1.5-1.5-0.276 0-0.5-0.224-0.5-0.5s0.224-0.5 0.5-0.5c1.381 0 2.5 1.119 2.5 2.5v12c0 1.381-1.119 2.5-2.5 2.5h-11c-1.381 0-2.5-1.119-2.5-2.5v-12c0-1.381 1.119-2.5 2.5-2.5z"></path>
<path d="M15.146 9.146c0.195-0.195 0.512-0.195 0.707 0s0.195 0.512 0 0.707l-5 5c-0.195 0.195-0.512 0.195-0.707 0l-2-2c-0.195-0.195-0.195-0.512 0-0.707s0.512-0.195 0.707 0l1.646 1.646 4.646-4.646z"></path>
</symbol>
<!-- report -->
<symbol id="icon-attention" viewBox="0 0 24 24">
<path fill="#030d45" style="fill: var(--color1, #030d45)" d="M12 9.773c0.384 0 0.696 0.302 0.696 0.674v3.593c0 0.372-0.311 0.674-0.696 0.674s-0.696-0.302-0.696-0.674v-3.592c0-0.372 0.311-0.674 0.696-0.674z"></path>
<path fill="#030d45" style="fill: var(--color1, #030d45)" d="M12.927 16.734c0 0.496-0.415 0.898-0.927 0.898s-0.927-0.402-0.927-0.898c0-0.496 0.415-0.898 0.927-0.898s0.927 0.402 0.927 0.898z"></path>
<path fill="#030d45" style="fill: var(--color1, #030d45)" d="M9.938 4.059c0.996-1.412 3.128-1.412 4.124 0 1.235 1.751 2.983 4.299 4.153 6.296 1.228 2.097 2.626 4.967 3.556 6.945 0.732 1.557-0.372 3.322-2.132 3.423-2.168 0.125-5.282 0.276-7.639 0.276s-5.471-0.151-7.639-0.276c-1.759-0.101-2.864-1.866-2.132-3.423 0.93-1.978 2.328-4.848 3.556-6.945 1.17-1.998 2.918-4.545 4.153-6.296zM12.913 4.819c-0.444-0.629-1.383-0.629-1.827 0-1.234 1.749-2.953 4.257-4.092 6.201-1.195 2.041-2.571 4.864-3.5 6.839-0.326 0.693 0.16 1.475 0.948 1.52 2.165 0.124 5.244 0.273 7.557 0.273s5.391-0.149 7.557-0.273c0.789-0.045 1.274-0.827 0.948-1.52-0.929-1.975-2.305-4.798-3.5-6.839-1.139-1.945-2.858-4.452-4.092-6.201z"></path>
</symbol>
<!-- mobile close -->
<symbol id="icon-mobile-menu-close" viewBox="0 0 24 24">
<path d="M19.207 6.207c0.174-0.18 0.281-0.425 0.281-0.695 0-0.552-0.448-1-1-1-0.27 0-0.515 0.107-0.695 0.281l-5.793 5.793-5.793-5.793c-0.18-0.174-0.425-0.281-0.695-0.281-0.552 0-1 0.448-1 1 0 0.27 0.107 0.515 0.281 0.695l5.793 5.793-5.793 5.793c-0.188 0.182-0.305 0.437-0.305 0.719 0 0.552 0.448 1 1 1 0.282 0 0.537-0.117 0.719-0.305l5.793-5.793 5.793 5.793c0.18 0.174 0.425 0.281 0.695 0.281 0.552 0 1-0.448 1-1 0-0.27-0.107-0.515-0.281-0.695l-5.793-5.793 5.793-5.793z"></path>
</symbol>
</defs>
</svg>
